<svg class="injected-svg" id="svg-9f96854d-a241-4f2a-b3b7-077b0a03a8ed" height="100%" width="100%" viewBox="0 0 540 508" xmlns="http://www.w3.org/2000/svg"><g xmlns="http://www.w3.org/2000/svg" fill="#fcc255" id="shape-svg"><title>graphic</title><g id="Слой_2" data-name="Слой 2"><g id="Слой_1-2" data-name="Слой 1"><path transform="translate(90, 69) scale(1,1)" d="M217.37,22.56l4.74-4.74a10.43,10.43,0,0,0,0-14.76h0a10.43,10.43,0,0,0-14.76,0L202.61,7.8a10.45,10.45,0,0,0,0,14.76h0A10.45,10.45,0,0,0,217.37,22.56Z"></path><path transform="translate(90, 69) scale(1,1)" d="M87.58,314a10.45,10.45,0,0,0-14.76,0l-7,7.06a10.43,10.43,0,0,0,14.76,14.75l7-7.05A10.43,10.43,0,0,0,87.58,314Z"></path><path transform="translate(90, 69) scale(1,1)" d="M353.06,152.55l-7.05,7a10.44,10.44,0,1,0,14.76,14.76l7.05-7.05a10.44,10.44,0,0,0-14.76-14.76Z"></path><path transform="translate(90, 69) scale(1,1)" d="M31.42,267.54l3.73-3.72a10.44,10.44,0,0,0-14.76-14.76l-3.73,3.72a10.44,10.44,0,1,0,14.76,14.76Z"></path><path transform="translate(90, 69) scale(1,1)" d="M322.11,65.41,309.6,77.92a10.44,10.44,0,0,1-14.76-14.76l11.39-11.39A10.44,10.44,0,0,0,291.47,37L268.3,60.18a10.43,10.43,0,0,1-14.76-14.75l16.91-16.92a10.43,10.43,0,0,0,0-14.76h0a10.45,10.45,0,0,0-14.76,0L208.62,60.82a10.44,10.44,0,0,1-14.76-14.76l1.27-1.26A10.44,10.44,0,0,0,180.37,30L158.58,51.83a10.44,10.44,0,0,1-14.76-14.77l8.36-8.36a10.44,10.44,0,1,0-14.76-14.76L11,140.33A10.44,10.44,0,0,0,25.79,155.1l7.52-7.53a10.44,10.44,0,1,1,14.76,14.77l-45,45a10.44,10.44,0,1,0,14.76,14.76l23.74-23.74a10.44,10.44,0,0,1,14.76,14.76L40.78,228.66a10.45,10.45,0,0,0,0,14.76h0a10.43,10.43,0,0,0,14.76,0l5.68-5.68A10.44,10.44,0,0,1,76,252.5L40.93,287.55a10.44,10.44,0,0,0,14.76,14.76l29.15-29.14a10.43,10.43,0,0,1,14.75,14.76l-8,8a10.44,10.44,0,0,0,14.76,14.76L131.09,286a10.49,10.49,0,0,1,13.79,15.75l-39.64,39.64A10.44,10.44,0,1,0,120,356.1l49.71-49.71a10.43,10.43,0,0,1,14.75,14.76l-28.15,28.16a10.44,10.44,0,0,0,14.76,14.76l49.35-49.36a10.7,10.7,0,0,1,11.18,2.57,10.46,10.46,0,0,1,.14,14.89L221,342.92a10.7,10.7,0,0,0,15.13,15.13l122.7-122.7a10.7,10.7,0,0,0-15.12-15.13l-9.32,9.31a10.47,10.47,0,0,1-14.9-.14,10.69,10.69,0,0,1-2.56-11.17l24.72-24.73a10.43,10.43,0,0,0-14.75-14.76l-12.54,12.54a10.44,10.44,0,0,1-14.76-14.76L359,117.08a10.44,10.44,0,1,0-14.76-14.76l-13.33,13.33a10.49,10.49,0,0,1-15.75-13.79l21.69-21.69a10.44,10.44,0,1,0-14.76-14.76Z"></path><path transform="translate(90, 69) scale(1,1)" d="M84.37,56.22l9.45-9.44A12.4,12.4,0,1,0,76.28,29.24l-9.44,9.45A12.4,12.4,0,0,0,84.37,56.22Z"></path><path transform="translate(90, 69) scale(1,1)" d="M290.9,317.26l-12.06,12.07c-5,5-5.42,13.27-.47,18.38a12.86,12.86,0,0,0,18.34.14l12.07-12.06c5-5,5.41-13.28.47-18.38A12.88,12.88,0,0,0,290.9,317.26Z"></path></g></g></g><path xmlns="http://www.w3.org/2000/svg" id="SvgjsPath14755486" d="M6.48-15.90L10.65-15.90C14.50-15.90 16.68-12.80 16.68-9.20C16.68-5.73 14.33-2.73 10.70-2.73L6.48-2.73ZM2.33-15.90L3.80-15.90L3.80 0L10.70 0C13.18 0 14.95-0.65 16.65-2.48C18.38-4.30 19.43-6.88 19.43-9.40C19.43-14.45 15.70-18.65 10.63-18.65L1.13-18.65ZM26.48-4.65C27.60-5.25 28.15-5.40 30.53-5.40L32.42-5.40L32.42-7.98L30.53-7.98C29.02-7.98 27.60-7.88 26.48-7.23L26.48-10.38L34.13-10.38L34.13-12.95L23.93-12.95L23.93 0L34.60 0L34.60-2.60L26.48-2.60ZM52.15-12.95L49.23-12.95L44.75-2.63L40.38-12.95L37.48-12.95L43.10 0L46.43 0ZM58.70-4.65C59.83-5.25 60.38-5.40 62.75-5.40L64.65-5.40L64.65-7.98L62.75-7.98C61.25-7.98 59.83-7.88 58.70-7.23L58.70-10.38L66.35-10.38L66.35-12.95L56.15-12.95L56.15 0L66.83 0L66.83-2.60L58.70-2.60ZM81.25 0L81.25-2.60L74.38-2.60L74.38-12.95L71.70-12.95L71.70 0ZM96.35-6.58C96.35-3.78 93.88-2.23 91.42-2.23C88.95-2.23 86.45-3.55 86.45-6.48C86.45-9.40 88.90-10.73 91.40-10.73C93.85-10.73 96.35-9.47 96.35-6.58ZM99.05-6.60C99.05-11.10 95.30-13.38 91.40-13.38C87.53-13.38 83.75-10.93 83.75-6.53C83.75-2.15 87.45 0.40 91.38 0.40C95.30 0.40 99.05-2.20 99.05-6.60ZM106.35-10.38L111.58-10.38C112.63-10.38 113.63-10.15 113.63-8.88C113.63-7.48 112.80-7.25 111.58-7.25L110.42-7.25C108.92-7.25 107.47-7.15 106.35-6.50ZM106.35 0L106.35-3.93C107.47-4.53 108.05-4.67 110.42-4.67L111.58-4.67C114.47-4.67 116.25-6.30 116.25-8.85C116.25-11.35 114.53-12.95 112.03-12.95L103.80-12.95L103.80 0ZM122.83-4.65C123.95-5.25 124.50-5.40 126.88-5.40L128.78-5.40L128.78-7.98L126.88-7.98C125.38-7.98 123.95-7.88 122.83-7.23L122.83-10.38L130.47-10.38L130.47-12.95L120.28-12.95L120.28 0L130.95 0L130.95-2.60L122.83-2.60ZM145.28-5.28C147.15-5.85 148.25-7.08 148.25-9.05C148.25-11.30 146.55-12.95 144.18-12.95L135.83-12.95L135.83 0L138.45 0L138.45-4.55C139.50-5.10 140.05-5.30 142.08-5.30L142.25-5.30L144.25-2.05C145.45-0.10 146.68 0 148.03 0L149.15 0L149.15-2.78L148.25-2.78C147.60-2.78 146.70-2.88 146.08-3.93ZM142.08-7.88C140.73-7.88 139.45-7.68 138.45-7.13L138.45-10.38L143.73-10.38C144.63-10.38 145.63-10.28 145.63-9.13C145.63-8.30 144.95-7.88 144.18-7.88Z" fill="#ffffff" fontsize="25" transform="matrix(1,0,0,1,195.86,300.125)"></path><path xmlns="http://www.w3.org/2000/svg" id="SvgjsPath14748652" d="M44.85-14.76C44.85-23.92 40.50-29.19 23.53-29.19C15.28-29.19 13.20-31.85 13.20-34.77C13.20-39 17.75-42.77 23.21-42.77C29.38-42.77 33.09-41.27 38.29-37.05L42.70-42.25C36.92-47.84 30.55-49.92 23.21-49.92C12.80-49.92 5.33-42.58 5.33-34.71C5.33-26.46 11.63-22.16 23.21-22.16C30.23-22.16 37.57-22.16 37.57-14.76C37.57-8.71 30.36-5.98 23.21-5.98C15.60-5.98 10.86-10.53 8.32-13.59L3.25-8.84C8.13-2.54 15.79 1.10 23.21 1.10C35.49 1.10 44.85-5.00 44.85-14.76ZM62.53-12.09C65.45-13.65 66.89-14.04 73.06-14.04L78-14.04L78-20.73L73.06-20.73C69.16-20.73 65.45-20.48 62.53-18.79L62.53-26.98L82.42-26.98L82.42-33.67L55.90-33.67L55.90 0L83.66 0L83.66-6.76L62.53-6.76ZM120.90-13.71C125.78-15.21 128.63-18.39 128.63-23.53C128.63-29.38 124.22-33.67 118.04-33.67L96.33-33.67L96.33 0L103.16 0L103.16-11.83C105.89-13.26 107.31-13.78 112.58-13.78L113.03-13.78L118.23-5.33C121.36-0.26 124.54 0 128.05 0L130.97 0L130.97-7.21L128.63-7.21C126.94-7.21 124.61-7.48 122.98-10.21ZM112.58-20.48C109.07-20.48 105.75-19.96 103.16-18.53L103.16-26.98L116.87-26.98C119.21-26.98 121.81-26.71 121.81-23.73C121.81-21.58 120.06-20.48 118.04-20.48ZM174.40-19.18L161.46-19.18L164.32-12.87L167.77-12.87L167.77-7.48C165.56-6.31 163.09-5.72 160.68-5.72C154.25-5.72 147.81-9.23 147.81-16.84C147.81-24.44 154.12-28.02 160.62-28.02C163.80-28.02 167.12-27.11 169.65-25.35L174.14-30.55C170.43-33.34 165.56-34.77 160.62-34.77C150.54-34.77 140.73-28.41 140.73-16.96C140.73-5.59 150.34 1.04 160.55 1.04C165.69 1.04 170.69-0.58 174.40-3.77ZM194.35-12.09C197.28-13.65 198.71-14.04 204.88-14.04L209.82-14.04L209.82-20.73L204.88-20.73C200.98-20.73 197.28-20.48 194.35-18.79L194.35-26.98L214.24-26.98L214.24-33.67L187.72-33.67L187.72 0L215.48 0L215.48-6.76L194.35-6.76Z" fill="#ffffff" fontsize="65" transform="matrix(1,0,0,1,158.635,261.90999999999997)"></path></svg>